<svg width="40" height="40" viewBox="0 0 40 40" fill="none" xmlns="http://www.w3.org/2000/svg">
<path d="M36 0H4C1.79086 0 0 1.79086 0 4V36C0 38.2091 1.79086 40 4 40H36C38.2091 40 40 38.2091 40 36V4C40 1.79086 38.2091 0 36 0Z" fill="#F6F6F6"/>
<path d="M28 8.75H12C10.2051 8.75 8.75 10.2051 8.75 12V28C8.75 29.7949 10.2051 31.25 12 31.25H28C29.7949 31.25 31.25 29.7949 31.25 28V12C31.25 10.2051 29.7949 8.75 28 8.75Z" stroke="#00263A" stroke-width="1.5"/>
<path d="M8.5 17.913H31.685" stroke="#00263A" stroke-width="1.5"/>
<path d="M8.5 24.174H31.685" stroke="#00263A" stroke-width="1.5"/>
<path d="M15.9219 8.5V31.5" stroke="#00263A" stroke-width="1.5"/>
<path d="M23.4277 8.5V31.5" stroke="#00263A" stroke-width="1.5"/>
<path d="M12 8H28C29.0609 8 30.0783 8.42143 30.8284 9.17157C31.5786 9.92172 32 10.9391 32 12H8C8 10.9391 8.42143 9.92172 9.17157 9.17157C9.92172 8.42143 10.9391 8 12 8Z" fill="#00263A"/>
</svg>
