<svg width="24" height="24" viewBox="0 0 24 24" fill="none" xmlns="http://www.w3.org/2000/svg">
<path d="M12.4697 3.25C12.6685 3.25017 12.8595 3.32912 13 3.46973L18.5303 9C18.6638 9.13307 18.7421 9.31167 18.75 9.5V18C18.75 18.7293 18.4601 19.4286 17.9443 19.9443C17.4286 20.4601 16.7293 20.75 16 20.75H8C7.27065 20.75 6.57139 20.4601 6.05566 19.9443C5.53994 19.4286 5.25 18.7293 5.25 18V6C5.25 5.27065 5.53994 4.57139 6.05566 4.05566C6.57139 3.53994 7.27065 3.25 8 3.25H12.4697ZM8 4.75C7.66848 4.75 7.35063 4.88179 7.11621 5.11621C6.88179 5.35063 6.75 5.66848 6.75 6V18C6.75 18.3315 6.88179 18.6494 7.11621 18.8838C7.35063 19.1182 7.66848 19.25 8 19.25H16C16.3315 19.25 16.6494 19.1182 16.8838 18.8838C17.1182 18.6494 17.25 18.3315 17.25 18V10.25H12.5C12.3019 10.2474 12.1128 10.1674 11.9727 10.0273C11.8326 9.88725 11.7526 9.69811 11.75 9.5V4.75H8ZM10.0635 11.7295C10.1646 11.7378 10.2632 11.7661 10.3535 11.8125C10.4438 11.8589 10.5242 11.9226 10.5898 12L12 13.7998L13.4102 12.0303C13.5372 11.8773 13.7184 11.7792 13.916 11.7568C14.1135 11.7345 14.3118 11.7895 14.4697 11.9102C14.5528 11.9705 14.6236 12.047 14.6768 12.1348C14.7297 12.2223 14.7644 12.3197 14.7793 12.4209C14.7942 12.5224 14.7893 12.6263 14.7637 12.7256C14.738 12.825 14.6921 12.9184 14.6299 13L13 15L14.5898 17C14.6991 17.1084 14.7724 17.248 14.7998 17.3994C14.8271 17.5508 14.8075 17.707 14.7432 17.8467C14.6787 17.9864 14.5723 18.1031 14.4395 18.1807C14.3066 18.258 14.1532 18.293 14 18.2803C13.8872 18.2797 13.7757 18.2544 13.6738 18.2061C13.5719 18.1577 13.482 18.087 13.4102 18L12 16.2002L10.5898 17.9404C10.4652 18.0967 10.2836 18.1972 10.085 18.2197C9.88617 18.2422 9.68675 18.1842 9.53027 18.0596C9.37384 17.9349 9.27348 17.7534 9.25098 17.5547C9.2285 17.3559 9.28553 17.1564 9.41016 17L11 15L9.41016 13C9.34454 12.9226 9.29469 12.833 9.26367 12.7363C9.23268 12.6397 9.22116 12.5377 9.22949 12.4365C9.23785 12.3354 9.26608 12.2368 9.3125 12.1465C9.35893 12.0562 9.42257 11.9758 9.5 11.9102C9.57742 11.8445 9.66705 11.7947 9.76367 11.7637C9.86032 11.7327 9.96232 11.7212 10.0635 11.7295ZM13.25 8.75H16.1904L13.25 5.80957V8.75Z" fill="white"/>
</svg>
