<svg width="33" height="32" viewBox="0 0 33 32" fill="none" xmlns="http://www.w3.org/2000/svg">
<path d="M16.0001 29.3333C17.4667 29.3333 18.6667 28.1333 18.6667 26.6667H13.3334C13.3334 28.1333 14.5201 29.3333 16.0001 29.3333ZM24.0001 21.3333V14.6667C24.0001 10.5733 21.8134 7.14667 18.0001 6.24V5.33334C18.0001 4.22667 17.1067 3.33334 16.0001 3.33334C14.8934 3.33334 14.0001 4.22667 14.0001 5.33334V6.24C10.1734 7.14667 8.00007 10.56 8.00007 14.6667V21.3333L6.28007 23.0533C5.44007 23.8933 6.02674 25.3333 7.2134 25.3333H24.7734C25.9601 25.3333 26.5601 23.8933 25.7201 23.0533L24.0001 21.3333Z" fill="white"/>
<path d="M25.65 0C26.9652 0 28.251 0.390016 29.3446 1.12073C30.4382 1.85144 31.2905 2.89003 31.7938 4.10516C32.2971 5.32028 32.4288 6.65738 32.1722 7.94735C31.9156 9.23732 31.2822 10.4222 30.3522 11.3523C29.4222 12.2823 28.2373 12.9156 26.9473 13.1722C25.6573 13.4288 24.3202 13.2971 23.1051 12.7938C21.89 12.2905 20.8514 11.4381 20.1207 10.3445C19.39 9.25096 19 7.96525 19 6.65C19 4.88631 19.7007 3.19486 20.9478 1.94774C22.1949 0.700623 23.8863 0 25.65 0Z" fill="#F5333F"/>
<path d="M26.9659 7.09461H27.7307V8.13961H26.9659V9.60546H25.6159V8.13866H22.861L22.8011 7.32641L25.6027 2.85001H26.9668L26.9659 7.09461ZM24.0617 7.09461H25.6159V4.65976L25.5875 4.65026L25.481 4.84026L24.0617 7.09461Z" fill="white"/>
</svg>
