<svg width="40" height="41" viewBox="0 0 40 41" fill="none" xmlns="http://www.w3.org/2000/svg">
<path fill-rule="evenodd" clip-rule="evenodd" d="M16.061 16.2292C16.9236 15.3586 18.0357 14.7834 19.24 14.585V12.2882H19.51C19.5939 12.2879 19.6743 12.2541 19.7335 12.1942C19.7928 12.1343 19.826 12.0531 19.826 11.9684V10.8346C19.826 10.75 19.7928 10.6688 19.7335 10.6089C19.6743 10.549 19.5939 10.5152 19.51 10.5149H18.069V13.1507C18.069 13.1926 18.0608 13.2341 18.0449 13.2729C18.0289 13.3116 18.0056 13.3468 17.9761 13.3764C17.9467 13.406 17.9117 13.4295 17.8733 13.4454C17.8348 13.4614 17.7936 13.4695 17.752 13.4694H16.627C16.5432 13.4694 16.4628 13.4358 16.4036 13.376C16.3443 13.3162 16.311 13.2352 16.311 13.1507V10.5199H10.769C10.685 10.5199 10.6043 10.5536 10.5449 10.6136C10.4854 10.6736 10.452 10.7549 10.452 10.8397V11.9735C10.452 12.0583 10.4854 12.1396 10.5449 12.1996C10.6043 12.2595 10.685 12.2933 10.769 12.2933H11.038V18.4746C11.0383 18.5593 11.0718 18.6403 11.1312 18.7001C11.1906 18.7598 11.2711 18.7934 11.355 18.7934H14.572C14.8433 17.8259 15.3559 16.9448 16.061 16.2343" fill="white"/>
<path fill-rule="evenodd" clip-rule="evenodd" d="M28.8891 27.2724L25.6341 23.989C26.3922 22.7589 26.6754 21.2906 26.4297 19.8635C26.1841 18.4364 25.4268 17.1503 24.302 16.2499C23.1772 15.3495 21.7635 14.8978 20.3299 14.9808C18.8963 15.0637 17.543 15.6756 16.5277 16.6998C15.5123 17.724 14.9058 19.089 14.8236 20.5351C14.7413 21.9811 15.1891 23.4072 16.0817 24.5418C16.9743 25.6764 18.2494 26.4403 19.6641 26.6881C21.0789 26.9358 22.5346 26.6501 23.7541 25.8854L27.0091 29.1688C27.1924 29.3534 27.4409 29.4572 27.7001 29.4572C27.9592 29.4572 28.2077 29.3534 28.3911 29.1688L28.8911 28.6644C29.0741 28.4795 29.177 28.2288 29.177 27.9674C29.177 27.7061 29.0741 27.4554 28.8911 27.2704M23.6311 23.861C23.0446 24.4525 22.2975 24.8552 21.4842 25.0184C20.6708 25.1815 19.8278 25.0978 19.0616 24.7776C18.2954 24.4575 17.6406 23.9154 17.1799 23.2199C16.7192 22.5243 16.4733 21.7066 16.4733 20.8701C16.4733 20.0336 16.7192 19.2159 17.1799 18.5204C17.6406 17.8248 18.2954 17.2827 19.0616 16.9626C19.8278 16.6425 20.6708 16.5587 21.4842 16.7219C22.2975 16.885 23.0446 17.2878 23.6311 17.8793C24.0206 18.272 24.3295 18.7382 24.5404 19.2514C24.7512 19.7646 24.8597 20.3146 24.8597 20.8701C24.8597 21.4256 24.7512 21.9757 24.5404 22.4888C24.3295 23.002 24.0206 23.4683 23.6311 23.861Z" fill="white"/>
<path d="M20.718 22.7334L18.433 19.3412L19.548 18.5775L21.042 20.7967L27.442 15.9872L28.248 17.0776L20.718 22.7334Z" fill="white"/>
</svg>
