<svg width="40" height="41" viewBox="0 0 40 41" fill="none" xmlns="http://www.w3.org/2000/svg">
<path d="M29.937 16.3825C29.805 16.1666 29.68 15.9467 29.554 15.7278C29.277 15.2487 29.002 14.7686 28.725 14.2904C28.464 13.8385 28.2 13.3886 27.941 12.9357C27.9359 12.9212 27.9278 12.9079 27.9171 12.8969C27.9065 12.8859 27.8935 12.8773 27.8793 12.8718C27.865 12.8664 27.8497 12.8641 27.8344 12.8652C27.8192 12.8663 27.8044 12.8708 27.791 12.8782C27.339 13.0356 26.884 13.1809 26.43 13.3392C26.036 13.4724 25.643 13.6116 25.248 13.7427C25.2236 13.7503 25.198 13.753 25.1726 13.7506C25.1472 13.7482 25.1225 13.7407 25.1 13.7286C24.878 13.5712 24.668 13.3987 24.445 13.2444C23.9251 12.8875 23.3627 12.598 22.771 12.383C22.7305 12.3733 22.6939 12.3514 22.6661 12.3202C22.6382 12.2891 22.6204 12.2501 22.615 12.2085C22.544 11.8433 22.468 11.4792 22.394 11.114C22.294 10.6097 22.184 10.0992 22.081 9.59085C22.066 9.51722 22.041 9.47687 21.952 9.47687C20.628 9.48561 19.304 9.49099 17.98 9.49301C17.893 9.49301 17.854 9.51923 17.838 9.60598C17.793 9.85009 17.738 10.0952 17.694 10.3393C17.567 10.9839 17.441 11.6284 17.311 12.272C17.3048 12.2947 17.2939 12.3159 17.2791 12.3341C17.2643 12.3524 17.2459 12.3673 17.225 12.3779C16.3707 12.7042 15.5759 13.1712 14.873 13.7599C14.8507 13.7755 14.8253 13.7862 14.7986 13.791C14.7718 13.7959 14.7443 13.7949 14.718 13.7881C13.8667 13.511 13.017 13.2293 12.169 12.9428C12.1541 12.9341 12.1374 12.9289 12.1203 12.9274C12.1031 12.926 12.0858 12.9284 12.0697 12.9344C12.0535 12.9405 12.0389 12.9501 12.0269 12.9625C12.0148 12.975 12.0057 12.9899 12 13.0063C11.831 13.315 11.657 13.6206 11.483 13.9263C11.009 14.7608 10.5343 15.5954 10.059 16.4299C9.97202 16.5832 9.97401 16.5852 10.105 16.7002L11.052 17.5385C11.389 17.8361 11.727 18.1316 12.06 18.4332C12.0822 18.4526 12.0998 18.4766 12.1118 18.5036C12.1237 18.5307 12.1296 18.56 12.129 18.5896C11.9724 19.4949 11.9761 20.4211 12.14 21.3252C12.1427 21.3473 12.1409 21.3696 12.1347 21.391C12.1285 21.4123 12.1181 21.4321 12.104 21.4493C11.676 21.8406 11.245 22.227 10.815 22.6153C10.569 22.8362 10.324 23.0581 10.076 23.2791C10.0631 23.2873 10.052 23.2983 10.0436 23.3113C10.0353 23.3243 10.0297 23.3389 10.0275 23.3542C10.0252 23.3695 10.0262 23.3852 10.0304 23.4C10.0347 23.4149 10.042 23.4287 10.052 23.4405C10.181 23.6573 10.302 23.8792 10.429 24.0981C10.9583 25.0161 11.488 25.933 12.018 26.8489C12.106 27.0012 12.106 27.0012 12.267 26.9498C12.342 26.9266 12.418 26.9054 12.492 26.8802L14.054 26.3435L14.743 26.1055C14.775 26.0921 14.8103 26.0885 14.8443 26.0954C14.8783 26.1022 14.9095 26.119 14.934 26.1438C15.6235 26.7166 16.4047 27.1669 17.244 27.4753C17.2808 27.4857 17.3136 27.5068 17.3384 27.5361C17.3631 27.5654 17.3787 27.6015 17.383 27.6397C17.558 28.5092 17.737 29.3767 17.912 30.2462C17.931 30.339 17.966 30.3743 18.067 30.3743C19.383 30.3649 20.699 30.3595 22.015 30.3582C22.108 30.3582 22.144 30.3279 22.161 30.2361C22.236 29.8327 22.318 29.4292 22.398 29.0257C22.488 28.5718 22.582 28.1178 22.667 27.6639C22.6705 27.6141 22.6888 27.5665 22.7195 27.5273C22.7502 27.4881 22.7918 27.4591 22.839 27.444C23.6714 27.1277 24.4439 26.6698 25.123 26.0903C25.1455 26.0692 25.1738 26.0556 25.2042 26.0513C25.2346 26.0469 25.2656 26.0521 25.293 26.0661L25.993 26.3012L27.617 26.8438C27.717 26.8761 27.812 26.9044 27.929 26.9387C27.9607 26.9007 27.9898 26.8606 28.016 26.8186C28.295 26.3274 28.571 25.8341 28.85 25.3429C29.2227 24.6865 29.597 24.0309 29.973 23.3759C29.9839 23.3623 29.9918 23.3465 29.9961 23.3296C30.0005 23.3126 30.0011 23.295 29.9981 23.2777C29.9951 23.2605 29.9884 23.2442 29.9785 23.2298C29.9687 23.2154 29.9559 23.2033 29.941 23.1943C29.722 23.0067 29.508 22.815 29.293 22.6244L27.929 21.414C27.9034 21.3965 27.8836 21.3717 27.8722 21.3427C27.8608 21.3137 27.8583 21.282 27.865 21.2515C28.028 20.3573 28.028 19.4405 27.865 18.5462C27.8553 18.5128 27.8561 18.4771 27.8674 18.4442C27.8787 18.4113 27.8999 18.3828 27.928 18.3626C28.028 18.2769 28.128 18.1851 28.228 18.0953C28.788 17.5909 29.347 17.0866 29.91 16.5883C29.9272 16.5777 29.942 16.5635 29.9531 16.5466C29.9643 16.5297 29.9717 16.5105 29.9747 16.4904C29.9778 16.4703 29.9764 16.4498 29.9708 16.4303C29.9651 16.4108 29.9553 16.3927 29.942 16.3775M24.21 19.913C24.2122 20.7529 23.9675 21.5746 23.5068 22.2742C23.0461 22.9738 22.3901 23.52 21.6218 23.8437C20.8535 24.1673 20.0073 24.254 19.1901 24.0926C18.373 23.9313 17.6216 23.5292 17.031 22.9372C16.4403 22.3452 16.0369 21.5899 15.8717 20.7667C15.7065 19.9435 15.787 19.0894 16.103 18.3123C16.4189 17.5352 16.9561 16.87 17.6467 16.4009C18.3374 15.9317 19.1504 15.6796 19.983 15.6764C20.5364 15.6743 21.0848 15.7822 21.5969 15.994C22.1089 16.2059 22.5745 16.5174 22.9671 16.9109C23.3597 17.3044 23.6715 17.772 23.8848 18.2871C24.0981 18.8023 24.2086 19.3548 24.21 19.913Z" fill="white"/>
</svg>
