<svg width="40" height="41" viewBox="0 0 40 41" fill="none" xmlns="http://www.w3.org/2000/svg">
<path d="M30.609 11.8644H27.917V16.7869C27.9171 16.8653 27.9019 16.9428 27.8723 17.0152C27.8426 17.0876 27.7991 17.1534 27.7442 17.2088C27.6893 17.2642 27.6241 17.3081 27.5523 17.338C27.4806 17.3679 27.4036 17.3832 27.326 17.3831H25.226C25.1483 17.3832 25.0714 17.3679 24.9997 17.338C24.9279 17.3081 24.8627 17.2642 24.8078 17.2088C24.7529 17.1534 24.7094 17.0876 24.6797 17.0152C24.6501 16.9428 24.6349 16.8653 24.635 16.7869V11.8644H14.284C14.1273 11.8644 13.9769 11.9272 13.8661 12.039C13.7553 12.1508 13.693 12.3025 13.693 12.4606V14.5789C13.693 14.6572 13.7083 14.7347 13.738 14.807C13.7677 14.8793 13.8112 14.9451 13.8661 15.0004C13.921 15.0558 13.9861 15.0997 14.0578 15.1296C14.1295 15.1596 14.2064 15.175 14.284 15.175H14.784V19.0737H20.17C20.57 19.074 20.9535 19.2343 21.2364 19.5195C21.5193 19.8046 21.6785 20.1914 21.679 20.5948C21.6792 20.6858 21.6711 20.7766 21.655 20.8662H24.055C24.4477 20.8633 24.8326 20.9759 25.163 21.19C25.3618 21.3141 25.5267 21.4865 25.6425 21.6914C25.7583 21.8963 25.8214 22.1273 25.826 22.3631V22.4135C25.826 22.5807 25.7944 22.7464 25.733 22.9017C25.7794 22.9266 25.8244 22.9539 25.868 22.9835C26.0669 23.1074 26.2319 23.2796 26.3478 23.4843C26.4638 23.689 26.5271 23.9198 26.532 24.1556V24.206C26.3131 24.4389 26.1855 24.744 26.173 25.0646C26.1605 25.3853 26.2639 25.6996 26.464 25.9491V25.9995C26.4593 26.2354 26.3961 26.4664 26.2801 26.6713C26.1641 26.8763 25.999 27.0486 25.8 27.1726L25.72 27.2231C25.733 27.2533 25.745 27.2846 25.755 27.3159H29.512C29.6687 27.3156 29.8188 27.2527 29.9296 27.141C30.0404 27.0292 30.1027 26.8777 30.103 26.7197V15.176H30.603C30.7597 15.1758 30.9098 15.1129 31.0206 15.0011C31.1314 14.8894 31.1937 14.7379 31.194 14.5799V12.4616C31.1937 12.3036 31.1314 12.1521 31.0206 12.0404C30.9098 11.9286 30.7597 11.8657 30.603 11.8654" fill="white"/>
<path d="M24.492 23.7016H18.636C18.5929 23.7092 18.5487 23.7072 18.5064 23.6957C18.4641 23.6843 18.4248 23.6636 18.3913 23.6352C18.3578 23.6068 18.3308 23.5713 18.3124 23.5313C18.2939 23.4913 18.2843 23.4477 18.2843 23.4035C18.2843 23.3593 18.2939 23.3157 18.3124 23.2757C18.3308 23.2357 18.3578 23.2002 18.3913 23.1718C18.4248 23.1434 18.4641 23.1227 18.5064 23.1113C18.5487 23.0998 18.5929 23.0978 18.636 23.1054H23.786C24.25 23.1054 24.642 22.8432 24.642 22.5325V22.482C24.642 22.1714 24.25 21.9091 23.786 21.9091H16.006C15.9631 21.9162 15.9191 21.9139 15.8772 21.9021C15.8352 21.8904 15.7963 21.8696 15.7631 21.8412C15.7299 21.8128 15.7033 21.7775 15.685 21.7376C15.6667 21.6978 15.6572 21.6544 15.6572 21.6105C15.6572 21.5666 15.6667 21.5232 15.685 21.4834C15.7033 21.4435 15.7299 21.4082 15.7631 21.3798C15.7963 21.3514 15.8352 21.3306 15.8772 21.3189C15.9191 21.3071 15.9631 21.3048 16.006 21.3119H19.906C20.0633 21.3119 20.2142 21.2489 20.3254 21.1367C20.4366 21.0246 20.499 20.8724 20.499 20.7138C20.499 20.5551 20.4366 20.403 20.3254 20.2908C20.2142 20.1786 20.0633 20.1156 19.906 20.1156H14.256L8.80005 22.2995V26.7933C10.3132 27.4358 11.8579 28.0001 13.428 28.4839H23.786C24.25 28.4839 24.642 28.2216 24.642 27.9109V27.8605C24.6344 27.7699 24.6034 27.6829 24.5522 27.608C24.501 27.5332 24.4313 27.4731 24.35 27.4338C24.1782 27.3356 23.9836 27.2852 23.786 27.2875H19.274C19.2045 27.2752 19.1415 27.2386 19.0961 27.1841C19.0507 27.1296 19.0258 27.0607 19.0258 26.9895C19.0258 26.9183 19.0507 26.8493 19.0961 26.7948C19.1415 26.7403 19.2045 26.7037 19.274 26.6914H24.424C24.888 26.6914 25.279 26.4291 25.279 26.1184V26.068C25.279 25.7573 24.888 25.4951 24.424 25.4951H19.341C19.2709 25.4834 19.2071 25.447 19.1611 25.3923C19.1151 25.3376 19.0899 25.2682 19.0899 25.1965C19.0899 25.1248 19.1151 25.0554 19.1611 25.0007C19.2071 24.946 19.2709 24.9096 19.341 24.8979H24.492C24.955 24.8979 25.347 24.6356 25.347 24.325V24.2745C25.347 23.9638 24.955 23.7016 24.492 23.7016Z" fill="white"/>
</svg>
