<svg width="40" height="41" viewBox="0 0 40 41" fill="none" xmlns="http://www.w3.org/2000/svg">
<path d="M16.658 9.727C16.6679 9.58075 16.648 9.43399 16.5994 9.29585C16.5507 9.1577 16.4745 9.03111 16.3753 8.92395C16.2761 8.81679 16.1562 8.73136 16.0229 8.67294C15.8896 8.61453 15.7458 8.58438 15.6005 8.58438C15.4551 8.58438 15.3114 8.61453 15.1781 8.67294C15.0448 8.73136 14.9248 8.81679 14.8256 8.92395C14.7265 9.03111 14.6502 9.1577 14.6016 9.29585C14.5529 9.43399 14.533 9.58075 14.543 9.727H13.652C13.3966 9.727 13.1516 9.82933 12.971 10.0115C12.7904 10.1937 12.689 10.4407 12.689 10.6984H18.512C18.512 10.4407 18.4105 10.1937 18.2299 10.0115C18.0493 9.82933 17.8044 9.727 17.549 9.727H16.658Z" fill="white"/>
<path fill-rule="evenodd" clip-rule="evenodd" d="M27.183 23.5353H25.61V26.63C25.61 26.6758 25.6011 26.7212 25.5837 26.7634C25.5663 26.8057 25.5408 26.8441 25.5086 26.8765C25.4765 26.9088 25.4384 26.9344 25.3964 26.9518C25.3544 26.9693 25.3094 26.9782 25.264 26.978H24.036C23.9907 26.978 23.9459 26.969 23.904 26.9516C23.8622 26.9341 23.8241 26.9084 23.7921 26.8761C23.7601 26.8438 23.7346 26.8054 23.7173 26.7632C23.7 26.721 23.691 26.6757 23.691 26.63V23.5353H17.641C17.5495 23.5353 17.4616 23.5719 17.3967 23.6372C17.3319 23.7024 17.2953 23.7909 17.295 23.8833V25.122C17.295 25.1678 17.304 25.2132 17.3214 25.2556C17.3388 25.2979 17.3643 25.3364 17.3964 25.3688C17.4285 25.4012 17.4667 25.4269 17.5086 25.4445C17.5506 25.462 17.5956 25.471 17.641 25.471H17.935V31.4224C17.935 31.4681 17.944 31.5134 17.9613 31.5556C17.9786 31.5978 18.0041 31.6362 18.0361 31.6685C18.0681 31.7008 18.1062 31.7264 18.148 31.7439C18.1899 31.7614 18.2347 31.7704 18.28 31.7704H26.543C26.6346 31.7704 26.7225 31.7338 26.7873 31.6686C26.8522 31.6033 26.8888 31.5148 26.889 31.4224V25.471H27.183C27.2284 25.471 27.2734 25.462 27.3153 25.4444C27.3572 25.4269 27.3953 25.4012 27.4273 25.3687C27.4594 25.3363 27.4848 25.2978 27.5021 25.2555C27.5193 25.2131 27.5282 25.1678 27.528 25.122V23.8833C27.528 23.8376 27.5191 23.7924 27.5018 23.7501C27.4844 23.7079 27.459 23.6695 27.427 23.6372C27.395 23.6049 27.3569 23.5793 27.3151 23.5618C27.2732 23.5443 27.2284 23.5353 27.183 23.5353Z" fill="white"/>
<path fill-rule="evenodd" clip-rule="evenodd" d="M29.139 14.7461L27.067 12.6692V14.4325H24.191V19.2127H27.067V20.976L29.139 18.899L31.211 16.8231L29.139 14.7461Z" fill="white"/>
<path d="M21.8449 11.9915H9.35494C9.28058 11.9914 9.20692 12.0061 9.13819 12.0347C9.06946 12.0634 9.00701 12.1054 8.95443 12.1585C8.90184 12.2115 8.86015 12.2745 8.83176 12.3438C8.80336 12.4131 8.78881 12.4874 8.78894 12.5625V29.3948C8.78894 29.5462 8.84857 29.6914 8.95472 29.7985C9.06087 29.9056 9.20483 29.9657 9.35494 29.9657H15.8129V22.472C15.8129 22.2882 15.8853 22.112 16.0142 21.982C16.143 21.852 16.3177 21.779 16.4999 21.779H22.4119V12.5625C22.4119 12.4874 22.3973 12.4131 22.3688 12.3437C22.3403 12.2744 22.2985 12.2114 22.2458 12.1584C22.1931 12.1054 22.1306 12.0633 22.0618 12.0347C21.9931 12.006 21.9194 11.9914 21.8449 11.9915ZM13.5699 17.6534C13.5701 17.7056 13.56 17.7574 13.5402 17.8057C13.5205 17.854 13.4914 17.8978 13.4548 17.9347C13.4182 17.9717 13.3747 18.0009 13.3269 18.0208C13.279 18.0408 13.2277 18.051 13.1759 18.0508H10.4839C10.4322 18.051 10.3809 18.0408 10.333 18.0208C10.2851 18.0009 10.2417 17.9717 10.205 17.9347C10.1684 17.8978 10.1394 17.854 10.1197 17.8057C10.0999 17.7574 10.0898 17.7056 10.0899 17.6534V14.938C10.0898 14.8857 10.0999 14.834 10.1197 14.7857C10.1394 14.7374 10.1684 14.6936 10.205 14.6567C10.2417 14.6197 10.2851 14.5904 10.333 14.5705C10.3809 14.5506 10.4322 14.5404 10.4839 14.5405H13.1759C13.2277 14.5404 13.279 14.5506 13.3269 14.5705C13.3747 14.5904 13.4182 14.6197 13.4548 14.6567C13.4914 14.6936 13.5205 14.7374 13.5402 14.7857C13.56 14.834 13.5701 14.8857 13.5699 14.938V17.6534ZM18.2109 18.0508H15.8899C15.7361 18.0508 15.5886 17.9892 15.4798 17.8795C15.371 17.7698 15.3099 17.621 15.3099 17.4658C15.3099 17.3106 15.371 17.1618 15.4798 17.0521C15.5886 16.9424 15.7361 16.8807 15.8899 16.8807H18.2109C18.3648 16.8807 18.5123 16.9424 18.6211 17.0521C18.7298 17.1618 18.7909 17.3106 18.7909 17.4658C18.7909 17.621 18.7298 17.7698 18.6211 17.8795C18.5123 17.9892 18.3648 18.0508 18.2109 18.0508ZM20.5309 15.7106H15.8899C15.7361 15.7106 15.5886 15.649 15.4798 15.5393C15.371 15.4296 15.3099 15.2807 15.3099 15.1256C15.3099 14.9704 15.371 14.8216 15.4798 14.7119C15.5886 14.6022 15.7361 14.5405 15.8899 14.5405H20.5309C20.6848 14.5405 20.8323 14.6022 20.9411 14.7119C21.0498 14.8216 21.1109 14.9704 21.1109 15.1256C21.1109 15.2807 21.0498 15.4296 20.9411 15.5393C20.8323 15.649 20.6848 15.7106 20.5309 15.7106Z" fill="white"/>
</svg>
