<svg width="40" height="41" viewBox="0 0 40 41" fill="none" xmlns="http://www.w3.org/2000/svg">
<path d="M13.206 14.5656H11.97C11.8105 14.5591 11.6597 14.4907 11.5491 14.3746C11.4386 14.2585 11.3768 14.1037 11.3768 13.9427C11.3768 13.7818 11.4386 13.627 11.5491 13.5109C11.6597 13.3948 11.8105 13.3263 11.97 13.3199H13.206C13.3654 13.3263 13.5163 13.3948 13.6268 13.5109C13.7374 13.627 13.7991 13.7818 13.7991 13.9427C13.7991 14.1037 13.7374 14.2585 13.6268 14.3746C13.5163 14.4907 13.3654 14.5591 13.206 14.5656Z" fill="white"/>
<path d="M13.206 27.0302H11.97C11.8105 27.0237 11.6597 26.9552 11.5491 26.8391C11.4386 26.723 11.3768 26.5683 11.3768 26.4073C11.3768 26.2463 11.4386 26.0916 11.5491 25.9755C11.6597 25.8593 11.8105 25.7909 11.97 25.7844H13.206C13.3654 25.7909 13.5163 25.8593 13.6268 25.9755C13.7374 26.0916 13.7991 26.2463 13.7991 26.4073C13.7991 26.5683 13.7374 26.723 13.6268 26.8391C13.5163 26.9552 13.3654 27.0237 13.206 27.0302Z" fill="white"/>
<path d="M27.979 9.58252H13.259C13.0821 9.58252 12.9125 9.65342 12.7874 9.77959C12.6623 9.90577 12.592 10.0769 12.592 10.2553V12.0619H13.149H13.207C13.6989 12.0619 14.1706 12.259 14.5184 12.6098C14.8662 12.9607 15.0615 13.4365 15.0615 13.9326C15.0615 14.4287 14.8662 14.9045 14.5184 15.2553C14.1706 15.6062 13.6989 15.8032 13.207 15.8032H13.149H12.592V24.5417H13.149H13.207C13.6989 24.5417 14.1706 24.7388 14.5184 25.0896C14.8662 25.4404 15.0615 25.9162 15.0615 26.4124C15.0615 26.9085 14.8662 27.3843 14.5184 27.7351C14.1706 28.0859 13.6989 28.283 13.207 28.283H12.592V30.0987C12.592 30.2771 12.6623 30.4483 12.7874 30.5745C12.9125 30.7006 13.0821 30.7715 13.259 30.7715H27.979C28.1559 30.7715 28.3256 30.7006 28.4507 30.5745C28.5758 30.4483 28.646 30.2771 28.646 30.0987V10.2553C28.646 10.0769 28.5758 9.90577 28.4507 9.77959C28.3256 9.65342 28.1559 9.58252 27.979 9.58252ZM21.858 18.3059H16.911C16.7474 18.3059 16.5905 18.2403 16.4748 18.1236C16.359 18.0068 16.294 17.8485 16.294 17.6835C16.294 17.5184 16.359 17.3601 16.4748 17.2434C16.5905 17.1267 16.7474 17.0611 16.911 17.0611H21.858C22.0217 17.0611 22.1786 17.1267 22.2943 17.2434C22.41 17.3601 22.475 17.5184 22.475 17.6835C22.475 17.8485 22.41 18.0068 22.2943 18.1236C22.1786 18.2403 22.0217 18.3059 21.858 18.3059ZM25.558 15.8143H16.911C16.8279 15.8177 16.7449 15.8041 16.667 15.7743C16.5892 15.7445 16.5181 15.6992 16.4581 15.641C16.398 15.5829 16.3503 15.5131 16.3176 15.4358C16.285 15.3585 16.2682 15.2754 16.2682 15.1915C16.2682 15.1075 16.285 15.0244 16.3176 14.9471C16.3503 14.8699 16.398 14.8001 16.4581 14.7419C16.5181 14.6837 16.5892 14.6384 16.667 14.6086C16.7449 14.5788 16.8279 14.5652 16.911 14.5686H25.563C25.7225 14.5751 25.8733 14.6435 25.9839 14.7596C26.0944 14.8757 26.1562 15.0305 26.1562 15.1915C26.1562 15.3524 26.0944 15.5072 25.9839 15.6233C25.8733 15.7394 25.7225 15.8079 25.563 15.8143" fill="white"/>
</svg>
