<svg width="40" height="40" viewBox="0 0 40 40" fill="none" xmlns="http://www.w3.org/2000/svg">
<path d="M38 20C38 25.13 35.86 29.75 32.42 33.02C29.19 36.1 24.81 38 20 38C15.19 38 10.75 36.08 7.51001 32.96C4.11001 29.69 2 25.09 2 20C2 10.06 10.06 2 20 2C29.94 2 38 10.06 38 20Z" fill="#6C7C8A"/>
<path d="M20 11.54C23.59 11.54 26.51 14.45 26.51 18.05C26.51 21.65 23.6 24.56 20 24.56C16.4 24.56 13.49 21.65 13.49 18.05C13.49 14.45 16.4 11.54 20 11.54Z" fill="white"/>
<path d="M32.42 33.02C29.19 36.1 24.81 38 20 38C15.19 38 10.75 36.08 7.51001 32.96C9.13001 28.72 14.08 25.64 19.95 25.64C25.82 25.64 30.83 28.75 32.42 33.02Z" fill="white"/>
</svg>
