<svg width="32" height="32" viewBox="0 0 32 32" fill="none" xmlns="http://www.w3.org/2000/svg">
<path d="M25.9999 16C25.9999 15.6933 25.9866 15.4 25.9599 15.0933L28.4399 13.2133C28.9733 12.8133 29.1199 12.0667 28.7866 11.48L26.2933 7.17333C25.9599 6.58666 25.2399 6.34666 24.6266 6.61333L21.7599 7.82666C21.2666 7.48 20.7466 7.17333 20.1999 6.92L19.8133 3.84C19.7333 3.17333 19.1599 2.66666 18.4933 2.66666H13.5199C12.8399 2.66666 12.2666 3.17333 12.1866 3.84L11.7999 6.92C11.2533 7.17333 10.7333 7.48 10.2399 7.82666L7.37325 6.61333C6.75992 6.34666 6.03992 6.58666 5.70659 7.17333L3.21325 11.4933C2.87992 12.08 3.02659 12.8133 3.55992 13.2267L6.03992 15.1067C6.01325 15.4 5.99992 15.6933 5.99992 16C5.99992 16.3067 6.01325 16.6 6.03992 16.9067L3.55992 18.7867C3.02659 19.1867 2.87992 19.9333 3.21325 20.52L5.70659 24.8267C6.03992 25.4133 6.75992 25.6533 7.37325 25.3867L10.2399 24.1733C10.7333 24.52 11.2533 24.8267 11.7999 25.08L12.1866 28.16C12.2666 28.8267 12.8399 29.3333 13.5066 29.3333H18.4799C19.1466 29.3333 19.7199 28.8267 19.7999 28.16L20.1866 25.08C20.7333 24.8267 21.2533 24.52 21.7466 24.1733L24.6133 25.3867C25.2266 25.6533 25.9466 25.4133 26.2799 24.8267L28.7733 20.52C29.1066 19.9333 28.9599 19.2 28.4266 18.7867L25.9466 16.9067C25.9866 16.6 25.9999 16.3067 25.9999 16ZM16.0533 20.6667C13.4799 20.6667 11.3866 18.5733 11.3866 16C11.3866 13.4267 13.4799 11.3333 16.0533 11.3333C18.6266 11.3333 20.7199 13.4267 20.7199 16C20.7199 18.5733 18.6266 20.6667 16.0533 20.6667Z" fill="white"/>
</svg>
