<svg width="16" height="16" viewBox="0 0 16 16" fill="none" xmlns="http://www.w3.org/2000/svg">
<path d="M6.20093 2.2566C7.17463 2.06297 8.18411 2.16184 9.10132 2.54176C10.0186 2.92172 10.8027 3.56586 11.3542 4.39137C11.9057 5.21683 12.1999 6.18771 12.1999 7.18043C12.1999 7.83952 12.0703 8.49241 11.8181 9.10133C11.6299 9.55579 11.3755 9.97882 11.0652 10.3582L13.6863 12.9802C13.7799 13.074 13.8328 13.2013 13.8328 13.3338C13.8326 13.4661 13.7798 13.5926 13.6863 13.6863C13.6402 13.733 13.5857 13.7705 13.5251 13.7957C13.4646 13.8208 13.3993 13.834 13.3337 13.8338C13.268 13.8341 13.202 13.8209 13.1414 13.7957C13.0808 13.7705 13.0263 13.7329 12.9802 13.6863L10.3582 11.0652C9.9788 11.3755 9.55577 11.6299 9.10132 11.8181C8.49239 12.0704 7.83951 12.1999 7.18042 12.2C6.1877 12.2 5.21681 11.9057 4.39136 11.3543C3.56585 10.8027 2.9217 10.0186 2.54175 9.10133C2.16183 8.18412 2.06296 7.17465 2.25659 6.20094C2.45029 5.22716 2.92855 4.33269 3.63061 3.63063C4.33267 2.92857 5.22714 2.4503 6.20093 2.2566ZM7.18042 3.16676C6.38934 3.16676 5.61553 3.40112 4.95776 3.84059C4.30004 4.28007 3.78689 4.90471 3.48413 5.63551C3.18138 6.3664 3.10226 7.17113 3.25659 7.94703C3.41091 8.72285 3.79203 9.43551 4.35132 9.99489C4.91061 10.5542 5.62343 10.9352 6.39917 11.0896C7.17509 11.244 7.97979 11.1648 8.71069 10.8621C9.44143 10.5594 10.0661 10.047 10.5056 9.38942C10.9451 8.73165 11.1804 7.95786 11.1804 7.16676C11.1804 6.10602 10.7585 5.08876 10.0085 4.33864C9.2585 3.58859 8.24113 3.16687 7.18042 3.16676Z" fill="white"/>
</svg>
