<svg width="14" height="14" viewBox="0 0 14 14" fill="none" xmlns="http://www.w3.org/2000/svg">
<g clip-path="url(#clip0_0_731)">
<path d="M4.84656 0.115848C6.01435 -0.116387 7.22505 0.00297367 8.32508 0.458621C9.42487 0.914257 10.3648 1.68566 11.0262 2.67542C11.6877 3.66538 12.0408 4.82954 12.0409 6.02014C12.0409 6.81078 11.8854 7.59438 11.5829 8.32483C11.3571 8.86988 11.0527 9.37768 10.6805 9.83264L13.8241 12.9762C13.9363 13.0886 13.9998 13.2412 13.9999 13.4C13.9999 13.5589 13.9364 13.7114 13.8241 13.8239C13.7687 13.8799 13.7025 13.9245 13.6298 13.9547C13.5571 13.9848 13.4789 14 13.4003 13.9996C13.3216 14 13.2434 13.9849 13.1708 13.9547C13.0981 13.9245 13.0318 13.8799 12.9764 13.8239L9.83289 10.6803C9.37792 11.0525 8.87013 11.3568 8.32508 11.5826C7.59463 11.8852 6.81102 12.0407 6.02039 12.0407C4.82978 12.0406 3.66562 11.6875 2.67566 11.026C1.6859 10.3645 0.914501 9.42463 0.458865 8.32483C0.00321781 7.2248 -0.116142 6.01411 0.116092 4.84632C0.348396 3.67844 0.921563 2.6053 1.76355 1.76331C2.60554 0.921319 3.67869 0.348152 4.84656 0.115848ZM6.02039 1.20764C5.07173 1.20773 4.14414 1.48919 3.35535 2.01624C2.56667 2.54332 1.95179 3.2922 1.58875 4.16858C1.22572 5.04502 1.13033 6.00963 1.31531 6.94007C1.50041 7.87064 1.95788 8.72619 2.62879 9.3971C3.29964 10.0679 4.15441 10.5245 5.08484 10.7096C6.01526 10.8947 6.97986 10.8001 7.85633 10.4371C8.73291 10.074 9.48252 9.45846 10.0096 8.66956C10.5367 7.88069 10.8182 6.95325 10.8182 6.00452C10.8182 4.73223 10.3126 3.51159 9.41297 2.61194C8.51333 1.71243 7.29259 1.20764 6.02039 1.20764Z" fill="#6C7C8A"/>
</g>
<defs>
<clipPath id="clip0_0_731">
<rect width="14" height="14" fill="white"/>
</clipPath>
</defs>
</svg>
