<svg width="21" height="21" viewBox="0 0 21 21" fill="none" xmlns="http://www.w3.org/2000/svg">
<path d="M12.946 11.693H12.286L12.052 11.467C12.9691 10.3986 13.4366 9.01648 13.3563 7.61077C13.276 6.20506 12.6543 4.88512 11.6215 3.92808C10.5888 2.97105 9.22541 2.45136 7.81767 2.47813C6.40992 2.5049 5.06729 3.07605 4.07168 4.07165C3.07608 5.06726 2.50493 6.40989 2.47816 7.81764C2.45139 9.22538 2.97108 10.5888 3.92811 11.6215C4.88515 12.6542 6.20509 13.276 7.6108 13.3563C9.01651 13.4366 10.3987 12.9691 11.467 12.052L11.693 12.286V12.946L15.243 16.496C15.4095 16.6533 15.6308 16.7394 15.8598 16.7361C16.0888 16.7329 16.3076 16.6404 16.4695 16.4785C16.6315 16.3165 16.7239 16.0978 16.7272 15.8688C16.7304 15.6398 16.6443 15.4185 16.487 15.252L12.946 11.693ZM7.93503 11.693C7.067 11.692 6.22616 11.3901 5.55571 10.8387C4.88525 10.2874 4.42665 9.52067 4.258 8.66917C4.08935 7.81768 4.22108 6.93404 4.63076 6.16876C5.04043 5.40348 5.70272 4.80387 6.50483 4.47204C7.30694 4.14022 8.19928 4.0967 9.02987 4.3489C9.86047 4.60109 10.578 5.13341 11.0602 5.85519C11.5424 6.57698 11.7594 7.4436 11.6745 8.30747C11.5895 9.17133 11.2077 9.97903 10.594 10.593C10.2447 10.9422 9.82995 11.219 9.37353 11.4078C8.9171 11.5965 8.42895 11.6934 7.93503 11.693Z" fill="#00263A"/>
</svg>
